<mxfile host="app.diagrams.net" modified="2023-09-18T14:55:35.128Z" agent="Mozilla/5.0 (Windows NT 10.0; Win64; x64) AppleWebKit/537.36 (KHTML, like Gecko) Chrome/116.0.0.0 Safari/537.36" etag="R5b4pzk7pCtGNMhs5DWT" version="21.7.5" type="device">
  <diagram name="PÃ¡gina-1" id="8lNZRVxMgUrRJFeKGGjG">
    <mxGraphModel dx="1290" dy="534" grid="1" gridSize="10" guides="1" tooltips="1" connect="1" arrows="1" fold="1" page="1" pageScale="1" pageWidth="827" pageHeight="1169" math="0" shadow="0">
      <root>
        <mxCell id="0" />
        <mxCell id="1" parent="0" />
        <mxCell id="Ns-Jqw7Hq7Ku6WKl-Y8S-1" value="" style="rounded=1;whiteSpace=wrap;html=1;" vertex="1" parent="1">
          <mxGeometry x="200" y="50" width="400" height="450" as="geometry" />
        </mxCell>
        <mxCell id="Ns-Jqw7Hq7Ku6WKl-Y8S-2" value="&lt;br&gt;&lt;br&gt;&lt;br&gt;&lt;span style=&quot;white-space: pre;&quot;&gt;&#x9;&lt;/span&gt;&lt;span style=&quot;white-space: pre;&quot;&gt;&#x9;&lt;/span&gt;&lt;span style=&quot;white-space: pre;&quot;&gt;&#x9;&lt;/span&gt;&lt;span style=&quot;white-space: pre;&quot;&gt;&#x9;&lt;/span&gt;&lt;span style=&quot;white-space: pre;&quot;&gt;&#x9;&lt;/span&gt;&lt;span style=&quot;white-space: pre;&quot;&gt;&#x9;&lt;/span&gt;&lt;span style=&quot;white-space: pre;&quot;&gt;&#x9;&lt;/span&gt;&lt;span style=&quot;white-space: pre;&quot;&gt;&#x9;&lt;/span&gt;&lt;span style=&quot;white-space: pre;&quot;&gt;&#x9;&lt;/span&gt;Controller" style="rounded=1;whiteSpace=wrap;html=1;fillColor=#4AFF2E;" vertex="1" parent="1">
          <mxGeometry x="220" y="80" width="360" height="100" as="geometry" />
        </mxCell>
        <mxCell id="Ns-Jqw7Hq7Ku6WKl-Y8S-3" value="UserController" style="rounded=1;whiteSpace=wrap;html=1;fillColor=#FFAB19;" vertex="1" parent="1">
          <mxGeometry x="240" y="100" width="220" height="40" as="geometry" />
        </mxCell>
        <mxCell id="Ns-Jqw7Hq7Ku6WKl-Y8S-10" style="edgeStyle=orthogonalEdgeStyle;rounded=0;orthogonalLoop=1;jettySize=auto;html=1;" edge="1" parent="1" source="Ns-Jqw7Hq7Ku6WKl-Y8S-4" target="Ns-Jqw7Hq7Ku6WKl-Y8S-2">
          <mxGeometry relative="1" as="geometry" />
        </mxCell>
        <mxCell id="Ns-Jqw7Hq7Ku6WKl-Y8S-11" style="edgeStyle=orthogonalEdgeStyle;rounded=0;orthogonalLoop=1;jettySize=auto;html=1;" edge="1" parent="1" source="Ns-Jqw7Hq7Ku6WKl-Y8S-4" target="Ns-Jqw7Hq7Ku6WKl-Y8S-7">
          <mxGeometry relative="1" as="geometry" />
        </mxCell>
        <mxCell id="Ns-Jqw7Hq7Ku6WKl-Y8S-4" value="SERVICE" style="rounded=1;whiteSpace=wrap;html=1;fillColor=#66B2FF;" vertex="1" parent="1">
          <mxGeometry x="220" y="240" width="360" height="60" as="geometry" />
        </mxCell>
        <mxCell id="Ns-Jqw7Hq7Ku6WKl-Y8S-14" style="edgeStyle=orthogonalEdgeStyle;rounded=0;orthogonalLoop=1;jettySize=auto;html=1;" edge="1" parent="1" source="Ns-Jqw7Hq7Ku6WKl-Y8S-7" target="Ns-Jqw7Hq7Ku6WKl-Y8S-12">
          <mxGeometry relative="1" as="geometry" />
        </mxCell>
        <mxCell id="Ns-Jqw7Hq7Ku6WKl-Y8S-7" value="REPOSITORY" style="rounded=1;whiteSpace=wrap;html=1;fillColor=#FFCCE6;" vertex="1" parent="1">
          <mxGeometry x="220" y="350" width="360" height="60" as="geometry" />
        </mxCell>
        <mxCell id="Ns-Jqw7Hq7Ku6WKl-Y8S-12" value="H2&lt;br&gt;DATABASE" style="shape=cylinder3;whiteSpace=wrap;html=1;boundedLbl=1;backgroundOutline=1;size=15;" vertex="1" parent="1">
          <mxGeometry x="40" y="370" width="120" height="120" as="geometry" />
        </mxCell>
        <mxCell id="Ns-Jqw7Hq7Ku6WKl-Y8S-16" value="" style="shape=image;verticalLabelPosition=bottom;labelBackgroundColor=default;verticalAlign=top;aspect=fixed;imageAspect=0;image=data:image/png,iVBORw0KGgoAAAANSUhEUgAAAZAAAAGrCAMAAADZ3DGQAAAACXBIWXMAAAsTAAALEwEAmpwYAAADAFBMVEVHcEz+/v39/f3+//76+/v9/f37/fz97uP++/n+/v7+/v3+/v7+/vv+//77/Pv+//7+//7+//7+//7onWX+/v3+//79/v3+//3+//7+//3+//7+//7+//7+//7+//7+//7+/v3+///+//3+//3+//7///7+//7///7+/v7///7+//7+/v7tgTj+//7ncSLlbyH///3///3mbyHmcCLmcSPlbyHlbyGmvMnlbyLlbiHmcyXlbyHmcCLmbyGYtMjlbyHwhDfncSKOrcHg6O61ydZwl7GVs8Xg6e92nLXG1uDi6vDp7vPR3eSSr8Li6u7h6u/79/L1vYizyNWOrcHD091ul7Cmv9DO2+WzyNTx8fH74syJq7/xq2f1uoHh5ebU2Nj51LPx8/X96Nb769r417jul0LE1N9UgqH52bn0sHLum03ys3V5nbjwol33+frzsXL39vLwrm9Zh6Xyzqbzt3v4w5j72bjlZgPtZATpYwHkbiHnbwD////mcAH+/////f9TgqBUg6HobgD//v/obQJUgqPncgFTgaLqbAH///3///7lbwHocAD///vnbwD9//1QgaD7///sbgFSgp7pbwH///rnbQD8///magFTf6HmZgHobwZQg6JKfJ5Sg6TlbQFIepvoZwL//v5VhKPpagHkcgFJfJtNgJ7//flOfaBNfJz9/v/+/vzjbgH9//r5//9RgJ3pcgL//P7vbALtii/6//r74svjaQHhcQFWg6btbwLqfRlUgpzsaALrcAPpYwFbiKVXgqD+9e1qk65PgaZDeJhgjKnu8vaatcd1m7Shu8z+/fbZ5OvlZQHg6e57n7fxpV/qdxDL2ePn7fL759HujTbS3uf2xpv98edlj6v87eDumEfwnE/09/n9+PT96dnyrm/D1N75+/3thiq2ytj3y6Lxq2j53cKEpbz3z6rncwupwdBwl7Hvn1W8z9v1voz0wpSwxdOOrcDtgCH0sneJqr/0tn/52LmTsMTvkT/407HzuoXpgyPrkjvhZQLmdxODriXYAAAAenRSTlMAEiYhFQgdAQQPGCwKMwxq4jr3D1zxeqhj2tKQsKJy6r9AxYmCt0WbzElWTReVK6j6UbeIWePRFZj5eMRJaSLwCTw5l2XacOJmju6p5+KBzOww2Jquq1HPfkimuWpMaT/b3+LObarsqMWl33zpwvfav5Xh+ey2jMa6xvVLjYgAAF13SURBVHja7NzfSxtZGwfwbbXW+qtWtNbWtlvdqm0puP/Ve/X+A/ML5oQw4WQ4zDCZGSYXQ0IGBuYXGY0JCUbIbRAiWCJRtKxYURAFS2XV2jcLu6UvtHfZTi6ez6WYm+/DnOc8Jyfzyy8AAAAAAAAAAAAAAAAAAAAAAAAAAAAAAAAAAADwbxp8cAtC6CKvFkan+yCGrtE/nRWdJ3chiG4xMrHSohd7IYhu0autnPjhGwiiW/QV7I1T9lfoIl1TENvflltkYRjaSJcUxPE/3jRo0Zm9B2F0gwFCN9e9Q1dzp2Ec6YqC2PRFef2ERj47D6tWNxQE+Ztx73jPZYk/B3FE7u4Ay7Y2sPFRclLsPOTRBU3dp7cqOX0/tBE7OgR5RK4H2eG+rlIrYruLwMDeBQXhSLi/rqyfIlbLwnjYDU9Iwd3X+eIOTXwaCtIFBaETu9cxPna+K4pQkG7Y9tLZWkXlhfxeKJIByCNyI7TdOm4XBB+GBJp6F+gfdVcYXqWKB5qbgMOTLvCWHOkxilo/Y0N/BOKIflQf106NGMNnTsXE4h3II3oPUGOdkRXjNJV93A9xRP+EDDrLpoDlm1ORhrOsbjDcylNCSSmecewjSKMLjB/oahorxhGXfQFpRO/Oy4aBFR7rh1l3EOLogp6+W8FYptTjlpi4DXFE7tbjo4ylVrG+vysmhiGPyOsxKW1nzLiazGzTLnkNgURrZG6msKfgdPsRWf/kc/QsRBJpOe5PhCz7IZPGPCXolyJLT0IoUa5WT5HIiXtf9LylMF6lltDct5BKhBP6E5TQEPmQURWeFzI7Wsj60EMi9AJlpTC1eZxLpxWsZA60EE3B1yERzoMzxNFYsrOuJDHG3pctl0z8DrFEZ47z6YR4lKkKAkUJxYbmPoaDkwjdHnMRcbcqOoN5RqCEw4nXcEkuOv1zYyku67MnGYGqyhivfh6FU5MI91fD06HmJLRUU7cs7DFefu0ArllHZ2jWLQT1QEQrG6puKdhSMsvPYb2KcP7QRFvSSFi7zi0xsZyiyusHv0EukXklsoHN2XS4UxQoHMOyYnyGH4ZEOH8sFMLQd2n7g0EpcS8Zx4J+kYBvpiIzzAUFkQ6cK8PiqZyFVU8/QXXYY0VlZJrUtRSRTnWhJGMKy2l5o4X8HkgmGr1PfNchAd3MeYKa53OWiTNngY/g1nsk+p79oYUFxyUHMZ0/tsx02SwX/ywkfBduvUexWj38L+IQGwSoaSbT7eaR9gRP/bKJCmgMLllHMA/Oa7RYcLNi4qyYzpU8WZXb61axiQKu8CtcIf35HnFclg3CkFwJpkfJaTVpMXLxxEmFPgtfTP189yaQ6Kdcgt4bJiNUPcUTrJK+v5tww4lH8AaHn2+OrRNEpN2Goagyg5cwIwux45UwtfAaOnoEbs1ovmajrT8NrDAqUxIUi1H0I0ebhH4ehYFJN6BFtHmdkRnLrHqWSqlW5pPvTkE9othgvV50SEjCyw2DMrGpxKpeGcs3DZZlx3/0mTu3+np6bt/u6YWD+Y67/VLksr5kn6W9UtwylyirJFDe2k5dCukf9I+RRzP1Al0nNrKnZuHkscP1eJxifZerN/RYTk5TeVVVqDyz+rmWEN0fvCHr3nyWcJqDWD+oXV79B44eO+nOS4llNdJ6l/HUfNwUYlbZK3vGuy0J1Re+H3X/fcdJ0H9widbRyXljcxReWdpJv2taGHAX52tMmompMaZaMmVTv94rIP/p9xej/lcLou9KtYOdjbX9CyJNwtFjJ/dXDkJs9uq4aFECj+O45Ml5zzjfS6CHg99fr4bGHxfs3ctG5ebmSzOkF97AyzE7OX+8FMWg1siYTFVg0lRaUJdMK3e9yc3+4Npo//C0hlbeX2f0NeFDyyHzUI4Ouju4UNDCzXeGLHiKqiRxSVCZmHm9OfbwO68I6B8ZGByfcbaan7GhY+PzRRZlp6AenVyunoQisi+/6IyXTGJTVVTBohRjeY99+f/b3aGBwbn7k6PERe7K+8qNHisbx6e7EiGFB5Bi5zyYYguO+6mUywuCqfJxr8pjlWrvr0J2/tvz9p7ZUeQQxLqSfbmTvBHSSbW4vVcnoViYgXP5Di5XUxJK1HaKOUGw+LjKpFXMx5Jr27UgYU9+E3TfAuKI77v0bnM5p8vlXPmm0gxCQrKuBA9IJ+cPxBVW9m+UEsUI8ZxSNZW8h9cadZdwZPSb1nA/kXBpDtXOzk2vqFiemTlpSZzmuoE0C+fyHZw/aFs6OjbwqhUT8rhaxVUvhvWPhPVTnK8Nf1M40v5b7fR8tSibeVm5OT/IplKk0F7FZuEcq3PuPRe1j0JRqVp6XEiXPEtX46XVs5QY+q4m+W+/rlk9C3Vt96yyVmRKjIJXVxut+uLEGJcYnYffi3Sygzxztk7WYkx7+BC8pJqUKSaf2bgoaA5hA9u3uUd/73tHfhsLm/vGKoX/2oQZlYOnc333RoaGhqCdd7SBvNb2ltexopYptazGsZfE3tr+ZlBH9N+kyTc9vb09c0+fH24bq1jFgsx4+vbeOBTiXxjPX8wvHlZyguIxHm+peU9QZSWzU5NYjfxTEJFFAUsWxVZDLqYVHmOGz6SvCLTxzuu/P4HYo2O+WMUMJVOeipnkkmd+9G2b49h/ChLUfZYN/GZl1fRwGXsWX1w+JA6cI3beQ0lyz3TKVNqrkGKpSyWcVIobRw5HyF+3SL8+Ihpn7+0YZqn9f3GzKtw0amL4DOLr/HxOCvanopc082a8VPZ4VaDw+vVh3XVE/2sHaT8hfkiaG/9j72pe29ay+HvtzKSfJDFJ2ny1adq+SVsG2v9k1rMYhuEtZj/DbPQFkhFXXBlhcX0t7IVwsMBgXRnJ8bNIiAzZGkMCCQnJIw0pSYghpNCQ0rRJn8LUSt84S2t3f1trdX++55zfOeeek7NgVXaTTLuQP67sOpN0Kmnv3fn0LrtfhzoGpkkC4BLT4lrnG6nhgdc1Sas5HUKa3tJRoy5jUk2SeTMXMjabGKGZxN7jp7Sw3CgCzCE1IBglRbHY+HVbG3v2sH/8+QAf+ZDywZdWwGEZwZCy3PmmNvCQ+o8YcHegeXQRinILWJjoyOeIntuxldnxyxcg9wZHxjqEvG9jHJjzgLFUVFhuzj6jtyOOePfhcGm5EYZMOhCBH9otC6DWSSY7u/tt3mjfy9EKm/ZSzZ0CkasiIiqSYe7UkyZolqT3uNefcJTlhlwFYaQLAyyaLsgXToSSVHodjTEZTzXLpe2jVqjLXcafh8Awjx2Np2mSGLJXk7bmnVzInBmKQeLm3MDPLxY+s05aE7yIkH5WKi19aiAO+YZf1DnQ/rdklwXawNj77NUzPhPqD4yKcug4OMIxQDYKJ4qjlYRyIurkGUp5S2sNl2BZhnrAFJOHimc7k1Sg9xw3Khp7iIuMjjhcZQiHAz9p7KdnFdbm+dHIJPWnl9ZyPtKhCWQAzfxhhheEx3Qcae8vyFM2u7qCGTUMsNqhbwiSDNc4Eip8U6g5icnome2z5lZLZsIfgQh1xlhnhWxl9AU9v97Huw67vVbXLQQA9l0/wL5YWFsql2rDU5PjI9GkhlsPlusgTyDEJFDJ4mdeS8+8pA6k9/fjzpjA77cCE0BVhUjkMIPwwmZNYqeGfteA9fA/9dCRmwiggMDcsiNMD9KdIb3HrcGBsnZY9HUSYFlEFkkGEIOPQkaa+j6evXf30T8MzFxC5Ihrzm3b01Sex4DBKUlKbXwoQOQSC88T4MoA10/T6VSiP/ro1dMHU6MbC98IYVQE4C/a7BA9vd5fj5GUI3nOyQWcN/MQ5rEK1FCGnHu1UmUqugA3H9SkFH9UwOL/CAFc67NTTtAL0nsMSQJva2/bFuFEpOM85lxCDHmV523hanb4TwPZSubMIMw35I0v2wI/TDNYvb8gM5IQqvGdC6yHbgEh0/Vd3Wqd7kqaMHC1MueNnfJKa0W9Q4if22um+GHq0XuOOwlFY/mlr0kz0BGBLrDEZD73bpvP8M7EVefhG68irRsAdQgBXzzF9kZpS0PPcV9hnTK/twhR3aoiaOl+lYPFdVvgBx58t1PqSUKz5+oEdghpnWbS0i7dAtZ7vMiUU2nl6EIUA5+E8hu4WC6+ayYmRl59PwXrxoBzZohcZLLyqxUplaEzNXqPV1mFTW9/uDxk7tIUqQzEF+8HHv1fefz2dOqorocxFr6Me8WQMkVzJDq4LIYboimSs9ru/PNFPw/Qykb3mNHnG18hxpDBjKoyovErL5QVOgUoDlWo8ZJ9lusQolp50Fp+3FVw6nt+Vgg4yGE1JEQVczu8IEhUFsaAu0pZYdcjQoieJMbHma6BAD9O7xQuZ5wwaqgMQ0JOS6xG11PEgZtSmeWPDbVzQ8x588PGVFeJ/Mboec4XGdQh5KSZeE7HMsWiQ9iywh/n1G+MqHJxccue6LJY9/+6YAZ5dGWytLGndEJDHPiRZVOhyeoQErqJxqk03m3Z/tmWq3kYOfUte2CcEhILIYLtsHsRIUkEzcPX/d2f/QstWoCLwt6F7dRYPzVZMeD2bilrHxhm1QIQEA5b1eLBzDWPNf8GcN4CYsf51w+k2jCdJRcHIYrC85srluoDjLhQp+vtt5PdRdm+/9ZVCJHZISR34vBePz2+3uNeQmD55pyBiQw5GagAtzeu29j5c10lyI3S76HNCuNe2u3ee9yaCsPe7H5DT7oEMxxxycrGSPdnfT/n8WWxvUMIV9+rCHRNRRwYKmu2cmbIGKAkgDAgK5vXEPLD3wNDVUFHrjCwMGcL6efUrfcefSMa6y0tGByjQiyGZ95evc5kDS0Y6CrZy+T11l4tLdDsYhwYnPb45ZxqWZATEUDk48Q14dPQpyIUUVQPwTj/ZYkv00eeseCPL2oHRQCT1VD4ySi3/viaOsfQfoEAJiKEY7jCSY0XXtKEbyy4m1ircwQkZQis3I52TSXw0V4OIhI59VC05LlfMoIyThtPYsGLw0W/Cl0D6hife2PdWZGnGyuMeVVTxzL2jbXd3ZTXfEQ7HeKQI4/nCtzlGiMRme3N4e54dqK2VYAMiEwWCZDZ+qw1JTs7Qo8vBjzbK2DMMRBCXNhLdS1+vjmmrDcgzHcISeahrAN8UMnMah59jRCHzcpsFQKcR6rvNo7Yrlrg4LCysQKSVnRDilXCofq7JdvRZp/S4+s97mu/IFNndORaxa8bXVmqJ4matN9AV4QEWLV02NjPZr3UDA21eo8bu6kd0xQBDoheP+6aIX7/cdZ+6+uRySLYqhICQO6QL9nD9A1u73GT1bY/FKEFGYTJu642oDtjTYFfbkRKXdZlIKvYKq5sprIebfHtPf4kpaSP0BRFP9Tqxtnwg983yv0wlfbY1XYSctAFRIwE4nzrk9B06Buq3uMPr0va7EmDyDoH5caaJ9Rez3xfNZ9Il1PeTiMAMp631MXIl1jk2PFopSqG9MmMpNWE87poLuowaB1qSjlT+8t3hNjpbHNjoehaohVcKXYLFvNv6WLJONDvlZXS25V6m0NJE89te1mbH432H9ybLikaX9mrAwhB0o0IQXrQ2srS9EkMuD2RdWazZwaex76bNN5nm2UhET14vjFqZ9iyc7lFXbdUNVLsVV+3cmeUkFi8yJ+Fiiec5jjEmXpxYZNPZSqdBwl9b3Yljd+W0ptfi8CSCY56gUP3Xv9EtxrFgltPZpSKcNTAnAjF1r6n/Mbetf20kV7xcjWQBQPlHhK84ZKQVaT0oX9BVakPu+pq+9CtVGnVlbZ96UPfPf7GeDDMaBh9Huzx2MYYbLAxzHgGT+oACXEwsQPBXHIly0Yhi3Pd3DZhyZ1NOjQb0iQKhUjOQ5gj+cmXh+835/I7Puf3QXaVg+9BKdoD/Aj9g6MtjFubVv85DLd48cavlMNLjuXVENzoGTeps1ottgd+iFU8b2qllxRrtpaUVFcWY6GlKa3OsOohBwJBHe74q3J0yaq1SjHmwrIjbGkMOi7OCxCpqC4rUlfXis/HFLO352PxR26L17JvsM0Q6NCS1sFWq+7QN8rJJa2DEmLY/SeeksEB3dQSz2Nx1M8SvKR5wUj2JIjvlrt1rYPabrIV1wYOdATCg9bfKs2spOWRUo7gHretbB40tT2gQwmEkDCRXx32LcJE6up1m9erC5M4fqDRYCXD3qBN+Y8qaVYAESR+ubu7VWtzX5znaQgJiKCrgrwF+TxH/eAm98m+0SanGrLFYiEN3crEXNJMtTUhcvwdWwdu0R26sqLORLECstqOT9ewDAWWDocHLV5Sqwt4rXhL0Gb7tXJwyau0tkKUhj92k96AofExRrCogIgvF6RLqqSQFDoz0GQJBvCwVYu3NGlbbEq7N5k+UqehJeb+lMXbaP3p25BAh1D+JSAp6p215fR+ch/e3aTr0GotQbLDqwCS5Myeq6HhkkPXGnDfwgQUDXnKXqmNc2vKj7u9MlsJ6rReiyVMXlcASXYbZQcqLLnJDoP7rAgRCpS99r766zDu7SB1FjzsxQ84lhVAkh22ciUMWxqwaG3PTjOYxLwOyK+2nXMHcEtrY5AkmwIDxxVAkh61NFBClg436tyPACIIbwBSdNbRZmhptA7KkLQOPFbK3uTzEdrvke67tQHbjxigXp9CUaV+HbSSJKlrCbZ271ueV6Yckh+0akQ/QT/pttiunw6hb9zUkvWv5QBpMVjCAat36omim/UeLKOEQePsHVur42cBvrknXfloAMcNBkMbiR8crVJ6We/DUrdifuFsh+3QHVST+iYgNoMctPBAm+OOpHjI+6q1qv573eeJ7/jXVQKyNOdsQdLSSOoO/Ryi9iqAvC8nKeSox21Pj7MhTbW67n9qqZyKc45WmRu2dR/Yjwr5Ssh6X1YEQvDqM8cDhGCw4sq6l77z+cVGvCN4yOC4w2Kwcu3NtoyUnMzMtF8sM+W5O6k+SqvfvrVaXaBwmI1YdqHAIfsP/puOCxgPSldDU9EFL64jB8NTVyiao9dUEEgvqfCgHBWCEhFKoChYEXOsr1dXFtM0pCgPUl6kLCq+mg7yUtJT3kYkVGoPy8VPL58FoRBN5K9uguy53N1iwHVT5xKSn6pacxl3D0tzHIGhnEAh4Pyp6cnZ2clT8wSCYgjgIAA8VaaAsHre2bnbNRDC4tqyt0CSV+oRCOTClVH52ZZW57Tq828NdLSSA49GMYgKa65Q5ZSjKCLwIuRPLYzPzI1E9D0m18iRmYmFMUpgAAcQrEqZfHwe2nMKSioKeQ+PIQhb+bbZqrztuwo5MDoqAFFkflnkSa399pkVJ/EzoyFUZLetmQXSq2Q8GHbs7sxQLNbZ2+t0mvV6e2+fr/fo4ixPUH4kARQXkX0jrWinJv/89OzCpYmH9+599mXWGsClpabm1pdUxInn4piZpf4njjaLQ/YPni/cvnbfJKOWCrHs7ZFYLHLk2M2jXT2+PrvR2NxlckZj+pmTIsUDOn/T98JUmdv/+Pcbi8fmunyxmHnmxqd/WUfhmpVWo1lJIlu2xecPduNTt+Iovbfs/64iFPmpxLh+5osvPykq5cZOnZy42e8zmfUNEbve1G5fHEMkgt+00ltZsmXk5Xz1p2tzrvaYL9bZc3P85HlP6TqDuKp+2+6Cslpauj8w4FhiMCF/HapyORXc9O2/fSwXaKqs3GJWBODkvZ7eBmc0YjYOO31zsxgU9m6qe9gz0jPlmJO6pU69s6Lq808nZkbaO/v0/X3tQ8duTJ4HFFOz7oihqskvL0SE/dfdJy5TAkesZ/9WlbutsuxFmsksBwhPiLPHYl2R5qiMSNTnvE2xFKzeNFFL9RtNoYcReY/HQ4wtPJzrj5nskS5nzDRzY1qEHCjcod5A42MLEwch6czhM1eJBCbVruu5fiUcpVVwgOelxERfvzNqijhd9mHfbUwmMzs3Swt/N8XTNEYAemxhcaTP19NsdDr72o9MTIYIhBIwbEfJRp7N7GJRQo4//X5eogk/+y5Kymm7AM0CkLgbdfUPD5mGXMP9rlkWEvwm4YcflQOC5z3S7MOjPb5+u9PlNPbZ7y0kEAg9CAL8TO2GVMjyqmj+/k+PGRFAAtLvJGCWvsfDA46Fd/ucRudwg8tlss+N8Qxfvjm0nrYUyjxj7NIxU3vUbnIahyI+08NJDOEIgSEkSRLpjd1CmLlXuvz9qMSxHt6DiJ+8W04rquIRCTLjnUa73mlvaHZ2LgKGwDZF0FLVQGx6fKSz1zxslot/87Dv2mRIQACkBAgBQfAEX7KRULFbuHAayrSbklgYZ95R5URVUBynMW7+poxHtMse0ZujsyzBCZtAS15+GGcXI53NxsjQULNMkKP2uzQjcZCBAMMQArIY5qnYQOMirRyyKMXzKERZCdC7Mt4VEVGm78hJn6s5YtZHXfa+ayLGCsUfuph89selk9fMvv4h43BD75Dd2KzvvyT6URZSHADA40EIHsq2bhfJyi2HACArfsVxiPz94rf0W1QrfGetX1WpgSBXWzPtenNDl17fYDZOYxhkP+wLYlTqqvPjPT5T1OWKDulX8OgyH5FLToZCUYry84CVTxXFMIwvWDON59bVF2zJTE9PqyuVP4x5eI6jaQgFAuGR6hc8PSsvOyUlJT0nLTW3Tv27P3/x2T9//48/qNZoahYSBI1d8slg6FdenXd5BBClHzQg6sKxmVhzw7C+2dzfZW4wdhn1/SPTHIYkaChBgpAwBIgUJTvJGtcRZpdU7JUwSfL7KYJH/sPe1by2jebhpnH8lSaxS6dNk06adjpJumVge+ptLp3d2dnuUCizDHvZ0n9gDnsWsoQQQgchGWGMQBImAsn6wBYCHwQ+WNjxV0IMNgRy8IKND4aEQAKBHPf3unsYth/TwtJCPL+YkMiKFL/P+zy/j/d99WIOYgiG2TblUfDytr7auBoOzz9eTUC+12/sdUfN8fFhWcnldpTxz+8Dei21W0z1NIEEQEiSVDo4hnMrlzpfv1U8VwgyKJOyFriaCxQhNKs+2HXwPJuGph3iNurrOGZ7W+8qSIXXWRYDecNB43j0As8DGSbOl0Dq4DD/xe3bd38BIE6OzsbHdcLaySmWq9ZqSqub3npPHh+ZT+3adr5l0CSBMJEPh6x92QH5d12iIRNWRYmuoQ9NaKRmQEp40EijHAQCLFAgpFkYtv52joTvUxPfXyggl4EEq8A7QBR0dNjo7XUHp+3zzmGFtJScZVmSKpQ1yafNXH1UZO+uvbfClWW9NHWmM9oEEMnvORh/51JL1rJ3tiMLGkP75bLsos9NuuA9TV0/7DRPu/v9IeYUWDDU9xPL83FwArHFuWgkEp1bjC1euxbauM/boFA2IAB6hQ/7gAGQYXTUPBu3jusVQdf1nKKYDE0HhKDKhkiqhKvn5GYjnVh9f51rprhNFeymLpAiuBBaqB2wFH65HyYfXW6MdyzBr9VkMQBhgC8IaAiIayQzlzPVerUzvmgfjQaD7sHePlgP7NXzZ0+fPnv+/V+/f/78+d+6g8Hg5PSo3Wyedzqt6mG94rpWTlcABFORGUmjVZUkRFEAVyBCniOZSu5ff//zy6vx2G8FxDNZB6fSTUWg0f9EQyaS9lKXfEeSSPzmqGrq5QBaTRNFDam16zMkocoyNKFLWNDBoXktS5ARfzSt8to0jSR9jWYEBREAHHQOqKAYgikxgqzKDGiMgPimCUQZ5F+lIW4VACXxT3/5NhZ9o5749gKKnSml8AsABK5E0oG5l85f/ifTRZLDwXldyZmCCN1QIDRGVQVBM0gSVIZmVDgmkAQawJt084mpsiBJEhBJYjRaQgIPZzMiXEAkaEaeKD4BJ8sAjeDC9QyAzNSq4/ZP83NXIpEPTGpCEHZThXPgGRCNJI2gxxemYSR3g8Ub3XarIkCjCSjmJ4NAoqHBReiWkJkALqAZoqiqKvqRBnIgCSHhbUYC+HyflgE1gUZlSZUUyoCFDAY8c01Lz+lupTpujrq9/sq9j+rfIRwHH3Zs0QypuSJhVPtcaRoemRJZQ2552DgYXXQONQvk35IkE0VDruhCejJJAgAZYICIOES8PgJcmPxGAHQAEpwAIGqEG9RqjAlA6LqhVaqdi/bgoDekPD57e/UjZ46EbA5zer4wwV8jrbHD2VOxDV90iYI4qgjBlNPf755AlFqtixKEqcgxG5ZsmqA+qkowE4L44KWBK4zkqwxDw0sQDMMAD25ZyJkoJlk5rHbOmkeD7n7jzqOr4YWbiQx3d+XrpY+dfxi3eSx/AokSSQNjmZ1T1pmWqQ4LqwmM2r6bSKBUjmdTw/7+3mB02rw4b7WOIXCqkK6lQ7dX/ms6CqPAhxuW5ZLg4uuHx63W+KLZHp109/YbfY/aLvHc3bWrr913LLl0c3nho6uMs7jjcGNIQxhGkyBn3cfx1SvTYnMxyDBi8fnHmwnKQZkHy6FvkBWmfnn2j/nZcDgcejLzBOzbl9/98OLFi5++exkOzTwJhRf++exVo49KkSgt5xNfLj1MLiQ3HibDv0Yg8vFjfZENFuN6hEsjny75VsfLrkzjNnxzM+HZ+eQfNreKWVRaxFYWIq8b9HWbRpBFo9FfN3J0MRQPh+PxSdI4iWf/H0Ot0Vssy7d3AhJF46JoDbj70/zA8ujC1x6qSt39XHFN5FGBKvQqNRf8OYQRVivxeMqXKS5l8HQ2tfp55hVE4mt/5HnsTFfBhYgBI+s/T/3eSUk8n2ILDz/LvRc2KSrL2V0rkMsMKQvBznly2vG4spDnSnn+c7TDtQdsKpWhnEbVIMqiTzCGVH/1+5K4x2yRZ6nPwJDIA4fDs5zHn+s1UqZpSXVrBw+mHo/IZpry8MIPn/7O91iukLa50lGuTDO1QFTLypH3+3KEMEtxvVH1x08e2kTXU3h6yOZPTMkvq64kynqb5W9MOx5z3/D7zfpOy/vke6cmvVQWZ7PdQA4srSzRdK5pp7i1Kcdj8eb+haAolR73qadvhlccrsTlu77kyrKk+q7etjkuvTndeMyvt1WFkMyzUjaf2PiEAc5ccoUrFbN8N3BpsazJjGudpkuFlH1/qtfh3tg73qFlmTRPqWEG204sLYRDsQ8fy5hbRGPv1/7nD+ZikzUos7Ph+DsRTq7bbIpivQFdcw1fNlQlGBQxjGXx9WkGJNn1FZUICNe6KGU9vpTNFm1ud2vpg2rfkYXNxGRe1nZic/ne/Gw4NBMKX00uf5kosHYmwxVx7vr9t7vo6NpuNusVqcKpaZR91SBopbVXKDgYl7FXp5kgT+uWXy67qm8GXbtkb7Ocg1E2Zt/5gD0nYg8wKuVRqGSMamH2NgYt6uD4sHFw0uy09qjMEHcK19+KyFqKwtMlvtRUZJWWAskwmn02xUMUjF2/N8V4XPtxR5RkjawRhMy0GzhfKLDsNpoFf2v2t4Qjtpr2gB88z2ezWR5jufxutrE3aJ8fVwRFN3KVQSGDpTFq/S2qNY9zfBHP9MYKgW7t5qqDQgnHKSfvpKc6LwzVxZpM18oSKZK+Xjk72e97lI3mTq+sPpoNheLx+DscSiT8Dcg9jqNJdh6Fxh9H7bPjemDlcqYsQxszstEcett4+vqbw7nRW47DZ7xuXSFckilbWrv/xdb67TRaUndjqh9dE67XfLksyhWG8V2CURTisHPWHg0O9hqv1u+sJ9CkxMRXj+bjsdjiYgzZIlgsNJu8uc6yjtNv7B+cHDXHrUPN1HOKYRi0xjC05gaqJBhK64ArFPk31e8ex1Oe1zaM/7B3fS9t5Fu80cSk0UY31GqttrU/1nalYJ/65oNbd3u7bblst929LNx9sy/7J4Q4QxiGPISZMBQZ+M4wOJDpTCQZBB8G5iFDEqPZEEFByIMPBh+EBEFB8PF+zze217Z7S9Xee8t2jq2JMk3hfOac8z3f7+d8xlRpVtL3q9lLnSGf76w36P3C97HalxQb98gWEhyeshFFsxqc2iqsmFtsrqzsLZUbO5ubq5XKw++xPcSGXx49mpraaZSX9laWaznHJHxFDfgJQCcCypBAIUss0I4g8Qdr09PvdTdtvbF0tNKUKEFFurGynug95yrOHObyUl7ieRwcgkPTCDGUaQs4p6usKPK6BEwGcLcuinC2ajEWI+J2WtQBM0UxDF3jCU0ISEEMzSOZFmyHYS2KZRFFsYzDp3JL1XcA8Q/jJdirXTpFM6yirazGEok2F4lD33ROrzUlZAO5hHcYRhAYy2JZQoejeVoFpgnTIpywInB/2JYhHsHvWcSwcCVt2zgq8KWCKhcwKjjUMDAqa/GsqBRz42/Xjwux7MJ6UynQpsJvr8fjMzN3XSTeJI/wHxtLqkGJFsPSvEboV6pqU3SLIQd3P34jtGBg3rwACJCiRJbwtmgWyELAksafQrM8/IDRM1OSnN/befg2wap/IVFa0gpiSqmVq9E4l83edM8/3kRI6FYkkq3sWSmN55FA4UABYiLfcjwDRNuWw0mkMMzrkGkBgv+ohEpKiRRu9nlSPXiKFgSEgAWf39+t1CPpd/w9VN+qSXqR3t4pZTLRdDwz4Caso/drOBuJJavlpm6YosXzNBQJnjkEBHi74PcWICJzGCUMQYnECIkQFeOAEDDqGNViDSWl55oHW5WN+UQklgi/k5D+tlws2s1GNYl7GAzI2KV2F4Wj9s3VcDQSvnJlvdxUU4aBWwi402nC6hVU4I2qpFwQQEiYYHtdSzBSjKUCSRtgM01dKaZyzb3G1Lfdo6PdQz3RdPjmO3j4x19MNirZ+uxcOspdHBl11crea9LOejyhrtBZj9c7PvHghZFKGbZgCjzCXmZfG4GBVSFl4W+i2spdjAxxIcKIiVFMvXgwMT4+HuyAzUn/4Ud7Pe+1ef4zIfxfBTsOBTDd9e4HKgr89Y1/93tNFckgjmYKMHiA+wvgxWMISGTg5RZMI5imaQDh3dDVxfzkg3Gf/yScRdc+ApbQ6A+PNqH9bi7mVFGDboRYqvWuiBsTTVNzudryyj5uHNcfXugMnPlkLEbX/sw8HUGvt324/8mTJ9/+NLW7tfvjL88nxu/dG5+4/+PW1g5MvZVKGzMZLnrr+rDHxeF/GTD+gO+sJ0R4vCQlBc4NRjKJeATI2bHYYKcrY/1/N99XIz0RIGePXex3hag/D+vyBDva2trdJ7e45pprrrnm2ue4dvLCbsYpjlDx6jgY9Lhb6Z+o3fjmajgZi1eWnj0/WWPhvXxz4Eo0OXat332K4aew7mS0nt1cKRTz8xdO0ngHrvf09MZm47g/GXEROb2193DT6yuSYerl6MJJJqna+64OhNOzs5HZubkLrj9PHyCvXpULKYoyU/vT3LXj93v+c9f7BuIJLhPnuEisw3XoaSvIYPJA0ShUQI60VE90H7uMhLpHroWT2Zex0nq1Hr/k7m+d0gI9uwowSGyKZ1L5RvXCMbeovDeuXamvrW4dLNd4p1yaO+8icsol798XRcGW4QCdYQ1Dbj6+3+H7yNru97X/c2praSWfMxRF09mCUtvdGBkOng11+VxcThoh3+u6bDqM2pLmw5hIugVHsvfu3fMSC0KL8RZEgRBsMD7/7tflRUoDNh0PFCDGsWlNye9svAyHY+mLd26728EnqiE/qLZMI4vwsVjCNqFoXtcVQzEMVc3l88vb+/uPn96HU3OwiQdPJ2s5ugC6ToaGgOygshTF8kgwRcvSlOZWaYFbeFVP9rmkkhOtsvaLAlV4zesRiNqcyog8rcmWyOjk/NwwFCkFcosShkE3DF0kZ+ui4ziyLCNECXSBMSmrwNsyq0n53dJ8LMr1nne9ewLreJiTLMd+zVXkKcYRRVpgREsEZVmEHc6qqkBojEKLpsWAtp+sMkiGZ3q1uHTIchx8ESi4O3pxcakSne657Xr3JNZfyUkFGsiKUNktligpFgQVJzET3/oChgMUMZEMKMgUT0QA7UOqKQUcRwr4vSaSBdvBqQ94vpokbVfdLvGEZb27uqwAx50FxaoW9U1lZEQ0eFv630CmphwH3toiKDMiEiMyEiBqiCogBgXJjig7qCAjSckdrI66BIiTWttII6fwwBOFuAD2tAAq06wqMiKOC0Yl2rGiyBIkZOAq4gtESkCQrHDU4GjBoYEox0SMpinOylapz+UlniZIhteWcpJkE3YcIcgRV4PEr+CYRAsbI8Sy5AW0Y02Kp3mZx/AhEJeFkQXKpCnZNIvqcqPKJYbcM/ePXeaGguSJ5m1tR29hf2d0rdGUdB3ZPJKxd2kWCIq0RRZRMgvqvjiJIQyGCaxrXOhx/Kg4j1mUyVq4r5QFEzQhVnYr2QSXvuJxPf3B/SZv0BvyBQKhtv7Bntnp6egMl+0duHF0euNrjltYP6jpIH6NvS/aAnY6Q5umjRdOMD/FtuYRLAv3HZRt46tsSi4UTEdlCwjnKRgI2VyLZcig9Neuzz9gX430xOOJ8EBf360xLhKJRSLpuXg0Ehk4+mw1/41IdiZTXy+vOJoCNR4m0/BqygJJax6e7IwjhsyFkNE2C0TJYZGLkC4pBswgVBdi+IMTM8kZbsTdOPmAjfbOp6Mz0bm5+tr6Dqj07u0d7K6WZhNvP6g7NBSbTiTSmeTaVHk7r+qKIvEwyoOrBi4qNo4WCra7IHxguYtTGTxbQRJzzf3Gz0/ujvYPpTkuPp+eTyQGj5OwAnfvXP6izrXaktFIrF5abWznc1pKKWKTrPzywc833lEi7eq/2jt28c7tdg+oZPx2/+nv+RysmXCHrksw9kwMuvYUBiJl5/CHNHYqpYvXO8lpeqDj/OCVdCx87Vji1v7LYy/DX1LH4rnFbeA8lDMUCecWyWr++rzDC6oxf0JJCIRCgbf3EL1eL5FVnnjwbDKPbfJZa9uxte8Y7Gjr7Ow4sp7ydx173Px2ujSTHvhy+BHevs09UqlpTdFqeztr/b5jTA74/21nAl2hUFfgza/+4z853ppv+FVkp1wf834hcPh+e7xoSBqSTUOqHaxuzM4du9z64eu/NI7jb78x/0dyvra89lffFwYh8bZz//hl0jBs3D+Lir29WZqZy3Dc5yTj3TkU47h0NlEuLv+1HxgS6r4VzmSq5cWiRvOiRaXUf5F3LaFtZFm0468c2VHskb/62bId/zDYq+wndDeJk87QnelkyGo2sxyaXhevJAohalFUicIUBVWiKIFK9UESAi0EtZCQLMWKsEECgRdeWHhhsDDIYNBy3ivFnUyGmVlM94xHuV5Y/mDkd+ve+969553TraUMpD6I43doaLQ7ZeAZDAOpqij92Ndl3A1ovfEuf6CwYT4niOpNI5GhSUMGEf3uMLaNDkxTNKDJRCp5qEnf9HNvxJVNnl7mJUUI5XJRU8tfUTSeyRoURZL0zB16m5kMxnH0Pn2pmuLb/u0Mj9qxTL2oqSafYxSWZfNNIimDrJziMLgCd4daZCxJYJghJ+jzEiOEa33c+3LpVUUUcmiGlwsIYvU9SOFyFud0jKR9d6fHtKFzqeR+tnEtmgXxnNrqW3+Mta7jPKLCZU2GNWPiJZZJUnqWMMiMjM077kpqGPLTwCAql2UxqiidTGK9b08ik9cHrIl6s9Z9/3C4XNMRRW5C1zmOmpqdvBNtv1H7YgRrNbtlqRSQTs4wmSZXB/qzjIy+kaJmlA0Jtw5R8tUGjlNEQiaIjEwvbG/YR+7fHxob/5/8/6MP7t0bGnzkaVXq79q8GGY1oVuhkgahGzuzmxMDlqRSX/VRbF+X+EJOKPzikIIq5q/rpy2alHUdYCQOS6lBAjC96LU/+O86xTbocPtwfKdS71yUS6IYih6YF03wnouQ+xTQaXgmoRJ46p/x/f5/2vjPbDDEmOnorUMENlqKayfdswqRoOgsTdEZHCf0FMcBsLPmnPjNtjdWo/Fjs3J0aMNN6pXaefewrEhiKcimDwrXTXI/C3B4YG/pXARgGEZhJKZP9ZFqhe1n3mSiJh+8JfIpxNJRPsxLYv64Wm/oCR3Q0HRCxwxMx3QwvfZbdFNs9ya9s37/qsfl2JoYGByccO4dnV1eH5b5eFxVw0HTjCvFywas6zTAqASW4mQysU9iXGS/ckRG1vtmQDL61Q8HAiMUcsqtQ2Il1hQYNO/T4kqu3e3UG6cklaQoKkElSZqDT+XMrwhIeDA0dG/svt25vbrgm5qa9k21Kkf183cX0BUWgSmDyM4YUS1f11tUEtdTBJ2KYISxD+sIRr+n9k8vjpL4VB8xzS11JaWQTuduHYK0tVkzWMrlwoogKJKkxYrH3c5ZrdECQJZhjADs14Ls2AYcs6uza67t2cWHlaPmWcfSdw0gvidVgceiEM+iMaNycn1WIekUB0gCx2iaNN6TBCXrkRYJGu12hpBBH1GO21brbTFeYm8dwgcD4VxJYE02lgvzaPTKKIoIk3i+eHjzrnPVrDUqrYeT//nOZnToT3vPak1Ly/XisJjPqbBUxFVFYdC0F4G+TFMTxfzhi1crjrk578ra6jxJw4xF0gCGCQEi1D5+Vj644qgU3k8gVDuVqt+UVUlkhGCAFxC2ikFAkgCC84R75JboWwpSrZfiqpAvFw+P3/74+8ePHzwe61FYj/+b04ptvMd1DX91bOzDSPEtktPl1XiP7ldlEPQ0GmTZWIiBnwIwMsRYu/v9ntf+VW+MNfjI4Vr04TpHGDLAcC6FN641qd1KRLhEX6FWnAbJVerV4zzKT5olAR1mA6GoEEZEyeEP3IkwdmIITZ1moXdUNN6VRE1T4U/z5ZOTX0a1v/vUrKW3xrknJ3D1Cwh6jQiXEcGZltbSSoAJ5AQmithJoedZ+LdD8DUCQ5Tyx+/OXnpmNj+9hGizO1c8q+vTNIkR+1Slmo8zahNQEdzoK/XV4RUCB9kEqNSuqhftMotACqUSQlmFCj0Re4RNFJiAJWFeKPCBnnI6rPsMglIzLM+oqobgDJomatZFEfQCPvbQLLFvWJx5lbcQvhZsHu4jooiNEeVHxMdsNQoChRivqnFNyR9ed5qVFHB7Jz/fZA9szHldi1NyMtuoljVFkM7JRCSV8fXX3dExl0GSBIZlMhnQqtTOOujSGaJwFRVVuGW1hAHCxtIwkVnU1oE0Smo9NuQAwl8FLEJrS/P+oyHWRbMHNQ1YpL0w80V7bRpEZRrjQwgmZOG1YaGSDsR88fjdebOSITIESfq2H/1DJhzYcsxs+ylQ65YlJcpL1SQlgxTp6TNc17DTv0Na0h7UvgzPvzoH/VLvICWDPCNazO1qGskBh3meRdSwCNSes9Y7JMA1jsL1jlpXeNAXFs49iuKKZRi01paTEHguHIrleqzKQRZhsFnTNEsIN5eO5dsX1fPnz/7KyZjPv7gQiejk9NrnlWF0Ys7l9j9snB+zkhJMq9HLLDHvf+hz999E14aoXxFMZ8nhWV9YXHMsDYyM2LdcDxs1JPZx3D7Jh9AmCCUgWGWgWazViJgfMffC+DBN6DL45Ac/Eo9b+wHonBDKerD8xELIoYUAqzCCgmhKLZZSpHlRf/bnhcVZ18zMyvL2smNrwzE7BbCd2c+mMRNz2+tTp1c3ZU2Eb4DX8mdgcdM+MjjYx6AgiynR9rFlNT646/K450HrtHHUvDqvdm+OD4vlGBI9OJBEyXKQqnygHEcEykyu14EJwyBB+GsWVpw03wPMwQ0VuuGm5srl9uHFi7dPX70+Os3SNIYtuNeWvc4l++CAfcIClGx4fLrPs/tpJrJ73fON85uyEhegX02tdPHt3MiXCEEdnnBu+0gSkzGZJCmKpE8rjVqzftXpVLvXNxeH7WLxJB+DBuMBLXz8g4mwlAeC8PsFuE9uf/3HH76B9ubN06dPnuz95HevbI2Mj+x6jAyGGWABRsfc1sTIsO32+q5zdsG/vfuxVg94f2peHuficSYUYtiAKhWvHn2pbEK2pWUfR2Ow8BukDGgA4CON9KTAvH/VAx9sp3PO8d2TvZcvv202689fv3oK7dXrv9TrzWbtCNrLvRnn5NAnQTg8uLS70VvruXmaprOk4VtfXVu22lgfYC4TK+7VNa9zc3Nza9I+sfndq5sTRooH0uiEElMOTi7Xv+ALPpPujJwhZKQ3RcrIGQTcBeH4wtqKY+P+baIbtj/adMyseLfQ4Gh0aNLpXVl2rXk8Lse/OiNsLhhITA9+wF3VOowTx2avLbW77V9YX1xcn/f94fn3L4pRUeMRfDtaYkPqQbFT2fmSSVImfRwwAJAxAEDEIA3DoJMUabhnNif/vss6+jf2rj2oqSuNQwgkIYCGp4A8LD54szxkAWWQjrvdx2x3u511p9Ppzu7+3ek/nf6ThHshF0oySeYSCDcBH5AAgSSXEG8LWSvyVJCVhwpKERHBByC2Uh+4rrruORF8cFNJrdPGyEeGEHI4N5zfPd/3/b7vnPO5P79Ql+XDXCVav249zINBRHCSlFCSgOAtm7e6ujNgfUM5DpjR8aEeg95gaG2Fu4AKiir0hs7ZqWlM+ybXy3PxxnEjCoAAOgvHUTB6wDE24gFB4ckv724+NhXMzQEIjFYKJSSKYUItsFJ4QGRC6Mbg3rOXj/f1FFXrDNbtosXFna2dRfutxStIRVN51Bu9QdQ1RGvCSUyIYkKMBMYE6C/A7YXR2wJfNqbnxYuxYskLA6oKTDlgkDAKVjoUkhPDAIrZ7k4YPimpqCkpsDLQ4iK9TlfQN9+Pw7QUGvaGH3y2e36qv3daSMLFjJA4wpyVVquNeCuU91L9+cSGhoVu4Hp6h0eToB8IhLAZVtUDjGesw2CoNpQcqMgvMLfmm2vMNfkl+/TV+rE7lwencV9SUe771oY3fYcoa8/HNQd6hv4zf/l0f+8EsO2kvLwJGpWIl6p5w123McLoG70tKiF6erp3+Ozpy/M3Z7t7OmE9EgNgjQU1FXAPfEUnYJUlel11519+vYfB8PBkwgKJzNUWNbAT07JSU5OSUlKSMlKzstNydzkhICzOB3+e7Th27Fg1IBV9QzePfwcLSg73TnyS8LwPxXG13rwst7h14bE2D9/3jAkM+sdwf/9pK82EZS7KDNaMlL7YejZEcRG03vklFcUl+3U6c8+v9sByI3ZuI0nMzkjP5K+U9IzsROezOcyoibPzd7qLqwEq1goh+n2Hesa6hz58QvisnA/Iu+8C6vfO7wbf+ePvwc9/A7J7SUDD9z/8+HpPT8c+eOcDi10PAzEF+eb81rKCspqSAyUH9sGEGAztd3TP/vvb/g/sZ3/xWen875WcjESn44exwUJkYnBqHlYUNuj26+p1ZnOJHih8ffV+qxiso1sAKPtShbaKoqJDMH5lrTupgzsNwU0P2DwM4BfBOCSM/sIsWNHRo8UVer0exlfMh8b67gAohqdVqo32s7+0FP4qsiPbyZQXixEVIm/GgVfUOzj1OBRcX68DyFQb6uvLgHNaAh/5ZbCm5NGjZY/TKPlms9n63NnZWQAjXPkALhgQLrOqpYoKM6AZAKz6owd6xvpmj89PnR2eIHGFCkdwMtxu4524g2+H5GQ7meZic7f5Qi7SDH1PXDUxDCyBNSN+vbujprWs3qCD6gyaZgPASL8s1mwHxA6+obOGGK0h/Yqamo6x632zN4/PA5M02DshNCIqE443KRCJ3BS82W6W45eRybdP0p1NcXnFBYApAugb5OoUiqIU4A/BQUHRw8ODZ09PfXv5O1iJ+M4f3v/N228v78RdkuvXh4ZmZ+/A0+b2gDd3//avVrdASwopmJBCMaNCheASFS7Z6O/t4epjv/HI3U4f+Ky03MTcNBtApTqO3mJzXkV4lOm/MYL0DUnw92Zwk6OCwgK3enixWWyOpwfwSz09PZmuHM7S5lsXlrsr/IUrTLYAp5XDYXp4wAJ4VsXBYnuB197JgaGhgbFb48KD1qMopg1OiGH+QL2ykzbqKYlLzqGLXyrdlDgKIslbgqMDGexlR/ZH2BL3p2eIrt6N/Vdi+3A4Pj88wZFGwyP12UvuzKEh4ucYAakQFCVVksgNPG+ef1RYwgYn2VmcTVdKKwDjOyYicQ04QuIwgmeNVMhN650iYJpImx87Vk6yJBoiKY7gs3IjjMB8NjQ0nIAPqhm/EOkEGbdddC5I86Pi6c5WmiMgEnoCkZy/9CUU+P3SmRYnUFo2bDa9EZ0ybncEpcUMLicvDdSq1VWEWl3YaFHPvPaLZ1iJdt38dDPDz3CEj8+VaL9UC5ZFtLfl9V/DTzcPmTacWj86G8l0hCnCSlgByGuflt6VY4/GsoWbQ1gRl00rAHntdxbTPdqVPu/3tnMER8vFbQUgr/tpCCwbAd6dNn1jvmPqLOYKQF738hB+NqKHNoOHNhxf28j9xOLqXIDY8rH4NgNVLBsNsx3gP+A42QzZSR/m7bZb0sPB/Kw1QH6CMBY/3XbLdMdkIs4GSCrfPq/XFlfnJ60B8solw25vNmkNkJ8JkCS7W6auAfLKJcteQFhJa0b9ZzLqKXbbkDW399XzkFy7jfoOOxnkGiA/SnZl2uv20nlIDmsNkFcvdE2UY2+MxSGCiw4CyNLBJ7D+rbu7l5c7ePLyAQJeA/mRRiTeVrtcxzQhqwHC9vFk8GLiYnhcD1cfNtvdx7qMysPDzY3hzdu6ifuyKXgOg8twe9wPw3vruqD1TSpUjiNGYUBEgNGIwSdMgZdLhAHrIwJCwtZt4sIrentzl/+IweXFwtVbyTyuN4/3TOLZL8e+mCEduBw/xwckeYsvrsVIEkNwnDr3z79/OnpjcXFxYe6/I11YuclIBUQ+f7ACMzY8znNZE7M9/MP9ba6MZm4O+YUJxSUUgpMSTKEiFRQpN0mMGCZsMlKIkCSNiJC6cK7l7tzo/cXb9xfm7k52YUI5iSOUSiIRmihERTWUmygTatTiFIYHJ7i+gKun2qfaUl0cHpDkT1A5YjKpTrSMXhx/8KjOUqupHKg8MmApbDv18OJcF4qbIp7dL8WInFsYHf3so/fifxn/3kefzSC4doutFGTC5MLo0hd43NWqFHKkSU5qASqIkWrGy7+eWTj58NYjqboSiGbAoq6tevDw9swFOTqNmLS4CaOauq7MXWmZvKsyjdw1ntCanp5/Hp9jj1W3kcKNd3hA2JGI3DQ9ufDNYZlaUysmxIRSJhOI/vW5jKgi1JWWRydnFPLIpxqetQ09/78BjaZWrQFSOzCO4Si5mX5Nt+DF9nZLo6ZSrTliUbcvNghNDZQRHnWKoSjZPHNj/PCRSo26iiCUbTIBQZSWFtbVFR5pr3xwcQQ5gSqaUBOOnbtx6+rMomak4cytZgxrCvF6gTLKpX+GNAedIC8EhOmrHVk8I67U1OZJC8VVUoAGIRUQX8gapYKDUuJzcbvsfAv2ZJ0Ky7MBuaL5Sros6mvnSNIUQjfJPMnJ9r0HxUppnkBUJ1XPKchyTCvB5aSEvDBz+1KVpbKWIESlgrw80ItMmScVtJUSRJ6ylLDsvfp1c4MRAo0r7o3g9+/dmHw43twgp6gnuWcWPWlI5+r0tVvpbMcHxOPKvTaNBYAARyUvr1GgVMrAIMmUYoFATNQV1hFV6msLT49BisGbu05p9i73lqe50mBS+dLtPg8bV1cJronhFZVVpyYVzTjSZDKqjOdunGnUaJQCaaNURjS2lYoIkVJEgEsS4lJllaBx7xfSysNziKJZQpmQpocz6MWFqyc/PX9BqMJVzywGiN++6hShzaJMR9mT8CJAEjUWMSEtFSmVYrEIDI5IAO5YkRjgQ8ikMrFMJm1rFLVf9V9CxH0bpSDHn+nN8g2wvRQdEG7XLUIgEogOEnnSr9SH/xTl7eG26f/UXf9LG2ka90trjJpWq251d6u1t91+ObVdz5X2ruXsn7A/LuxysOXgvrBw+9Pd7WQSmAnDG94Jg8P4Zpj5ISTMQGBmEjJtTFCM4K9BUFAq1tOw0kgDUqHlpFWv98boNpppTPuTDiISmbwvz+d9P+/zeeZ5nrmkubZzUkJWSHwnJRD5sUhWRlDlKfwHIkiAx04ywcCLiEv3e0dGF9ZD2c3ticUFd4SOh4qzM/qPIjI0fHgGJZDdvVd1GgAxeJik8guVJSCmDwMRiGAJIDN49SK1cAsSs3173m9TW/eIO/0kEYD4Yxb/8HBiWvN1llJBzWqOh8Y4xAzIeoJPb+y5ZfW/vZ2dAQAkgSEARMgC/g78LXh/8qrBQEEd35+jkNjkvLTpjT5bim6NLW7pz8LRtIs+5I20Ho2L3Do0i+E/nFg8ygFi63/kAZQqYMPhjSF4iBiFUsiAKmZ/QwZw7xbWg4Kb/ubPznddasbeqL6aowqAILzGE29o7lLpmHXrHiop4FMCYXISfzpwk7veJBjSiFEyhAjTJI9PKiGVEiiFTyVTyrixP0kPD7bi0VCExm6A5o9G0xqtR+Kdhzdi/Z0yiAwfDfR+/aDqNABS1RswMD8JKgMUgaEm8y7vTFBRkIp4wYihPTyw1yXm5kO626X58zqBXlBQYYcQhBycDcXPW8iQzSmYHA9gymLJQPCbg4+rlxiDN1JGgEgBmURKUMED4ktJAYxIIHcwS4/4cpozOc7v1Uf85qg3Gh510l8cd0q8K1zrP3qg3+qtsp0KQIb/mUIMgwxxJgiYiccbG9lXmdnl3YnElJISWP7gLlZZprWIjhWkLxTntqU9NFiWFajAy2mnRaeNM5kgJCmZYPAvKvWuI8b5hYDgMVhewdpDmZt4/XQ2gwfc2J0Tg3zSEA7GU6Gy7Y06I1gg6VGsFNO6N339qNyx2R4c5qW7d+/k2wX03jvqgw2dHLo6VhgOJlPgf0pubfbF1tKKyzR13ctx3PT6qx3M9oVb8HZAAXIsEnGNeumIOz46plACu8/2hrhFWzRiOvNUgTwieQLTljxQ1KrupxkPDE6KcwvZzfXFNB5Kz/dI8y2+yb6dGf91mmhcnFsJu13eEJ7OiCtMj3BXLVKSbbYS2//8dYloHLhXZbOdGkCqBv+1s/FkdSUabY/Q7uaLbY6alq5Ot+5bfAXJA04ncqSUDXM0to7pDnnTayJ14PdSUkazSKev20EGSMFYgEWexHdFJhy+/+/ky9lnq6Yz7evGoznaLnvNEB2Jupc2RB5vuj2kSZ4ET3xeHctIzhWK+Nsv9rwvpNY7eKtc/e3AYG/VSbuOCy5W19XWNlSfO3fObi902rPVXo74Rs3nBji4SwDK2n/M7qt9F5s1WuMyCbRPZQYQH6ct1m5NDkE27/OyJEh8f1iwnamtaWzp6XHUFV4WU9/w1bVm/Re3L7otIaIACGUw0nI8THNhn958qaOxbIC6vxwgJ7FE/SPC7zXdfndY35QOGEQVcsZ8d0d1va2p5hOvviV6CpQlMhSQ50sBGf4TQEg1eIIXSNn45rhngLb66pq2Tm4kK+4DHUM8Ppxc7V80VufbmZcx6oPfDR3TNWDgfuvpB8TW5/eZ3viuxBgyyRskBGrw2UG3qtor6Z1JkhRTSMUOM5/YtijJ+ntQpmAMIv6Rwb6tqCDF1nQzvTKRBKqMdQmFVQkcu33jmOVtGxyqpG3A3RPW8ORjHlB96dRGvL4nIoFkyJMCtpG0/ev7bOyXZ6cIVcBakscKT3xaCojtxxkEEVBZiFRxodIKoZZwRsJwqKwgkBRlvOk7Bo/K4Dhwe083ILWa5neNTs9hgQhlA2DDSrPvynfrnkuQJAVK5o0YUHKlBq9eCxAqi5E0iNhUpuKixq/WFSx6SCgAlacSm+Vr71ot6qhuDfb39j+4P3Sy+518DCDVHOfzh0cWFIBFfBKwhEdaLrJP15yR140epOJ/S6VnxLcyQyCSQtgvRpPPKy7ZOntlIiCz4wYEMCUkXpVr6GezaKxxp7ANsOUfWEAy0HqaAWm6wIU1r3dDQpAnkgIpCInlooXe+FTEXKZiBQdIY7KkTuzsXyR87OQPAxYac0uVN1u6+ThBCvk1gFWl9Ndya7r0Yccfi6cxbOELD/WeYkDqr/rz7/HOShQEFJTzgGxUF0dGJNKTjz1CCgEwcDS4eONVUMBrnCIRERAfxyuvoXMsiJCHZD4CRkjffRAeRx+r3zm5PYE+KuukQ3NpIS2DDUtRFCRIQfpbkTSzr+Y8iIUCJiUWQHCEs+rSu0GEGIT/Q3iUbKTyGrqWAiCAIiArff9BeBzNEa23SFscaj21gNgaL13+9MJoZgqfEjKAlMoH/1z8lc6FIENRSFABY8CpHw+Z3H5lZSKo8oyBRQhJJZ7rlQPS9RpLHwqLSYhiU++VL7bSxhoWuYulD95PRu77R+6Q6p62rmvNmRkIY1iKQIoIFlO0nftvELtRhkpiN0wBE/8oekOt/eLIukJhbwnvHwHKqcXKKauhczdBMAHVQ0BESO+lfIvGGlZ5QL//+XTmZVWdrXW0OGoa7OeK3vJVb69x3Oi6khE9j1AqAPOAFC9Ye3rMwzOQp6DBkmRA2eIu3nTUNtib6s/W9oWiL8Q8IB58xBDKQtr3Pi/rbEONo6cnnw9WCNmc+dy/mwCETAnlAamwYmfYoqLt7snP7W06/+ltl8scjbR3t8ejndc6vnQ0Onpu3GzrwDskO5kk8FmQygNSbB+7T9uZhAQPEEliUpvKRN0jpit+4fpvPvms2ccti4hlUT4AKcxkOK+lnrA5+pq1fGSZ8zrN5kttLY6OK97IawnLGyqwB0jrB8SuLBsCWG2RE1+w03SNc7udoXjEdHpN2mmaOhdJTy/98PDhwx9Wl2anZGSQAsoDUmwfu9eZDUKIT/QY4YGqshaP+3UX53W1X292R1ZeivtBQhBLbHG6VR/s6mthU/PRmqlpmh6eXlxazV9La4ocMGCsHCBWVR/WCVeWUcf+kwdI8RlrO+930WbcP0q7wxF/en7rRXZ5d21nLle4MOeQrCCSJYCYo1sIGFgt4E2AecszFqd102k6ORdnRsYCVAEPQgATizRt8bZB++ea08VFV+afb2eXF9Ym3uYYVc3JKuMhUzJLlQPEyswVZ7+fiHTrcoDU6m5Ni8ZDv0RH5l9s7DCiJAUlEfGgcP2fuvN7bRvL4ngmaetOM2l+TPNjmmaaNEmTJlt2Mt1duu3A7v4H87rLPhS2+7C7LMu+Vr9AMuIKSVxsFEnYD0JGgoAkGyt1bGxqQ16NoYGGhjq0YUJSGggpNKSk03b2Kmnc+Fc6YYapVwQCwsp19NE953zPPecqy8/KGkuY1UDgfMYgHMwkZCEInNAOtCHOUS4uol/PC8gJ7KfnC0WRoSarn/KRAMzPfb+c2fCGUw0MjSXLtATM+N5a+1FAagiMehVw1xtzilQCOSScTw6IFB7A88yjrcVsKHdv/zNe+cn+YQI+hcJXoQoI811gM5nFZJZAtx5I6mIewpituDhSkzPLKv0OCB96zln2UI004tz2atgoGEDaY7fnb9B4XjImLbFHzZBf/f7H78/wTS0gNxoOyPtc4NkRSJKJRP7B/R9y6Hk3eVkgeEySNNo7vCdcQpFrWvNXAjnL4dZa0i+wAOxVrAD2CW5xbjRC2lTkcUbeA4L+gAYecHi0KvnYemsZFBwATIl3HDmLgmMWOSSJFkwtiwFeM48A8ptjPPU1ncjNhgPy7oH1fTI5nkAeJLK0wic15JuRxnNYwZBMU/Bmh1fEILA8CKdA1Qw5ydlwacGhSyuKuedugOSmKTtv4S+TtByXg6yU8qt3bZvsKN+o2nfq9qaTQ+R5NCTvELyGxT36aD46Am/KvCCHjwBS0wz9sY5gqbk68nmjAWnfe3dU54ASm6by03AtkwSz5qyZ9fKISCVLAGDA79+72Wh+CMh3G5VATndwJCwm/aWihGRRcTmLVCI2E90pOJKMCakgIesrLo73lFurC1sLugNSIB3U4ihyDgaR5SNkTZNBMIgBr7IuhR0BpJaj/m29f73Whz/+nlmVQK6eaDrdNkoyog0TZGxHVR3g+QonKGlpoBGYLCdDquFVt+uAJ+KGtMFXAmkaYCy4FSqtuYedjSXGtkhIWWR+URdoJ4yAIBH/FBmxMl048e1mQWUxAsMIeVZj/ems42gqOnQ0YsjwEzyYJeT6QI5nhb5uSCdSCaS39dO2C6IVieJKFF95a8Qdwo8sBwtY01FDKr+wuvjmTXHZO15j3rKGWg3kS5ekHmT5EhDeWIO2YrsUhI8WZIAuoKWgLL94DPGJMu/xbTHksCDo1ZOaDqGBwls1jgbc3d0fMHNPRkaLqA+kpgupG8rWLEi53mhALlxp7usgoR3jXGrlLcgiY5XWpLRjqrmN3e1nc0uPoyRJ7r1Pcj0UZE1ptkoYNk3ZAcreLZUJybK+acGoTXK2tZbzSqhlGbBy6D4Oxw7X7/jGirks7WRRABHEsmYymVn+/uWDpfzensI4w8SKumaGUWBRF8iNO8eR39fvNKJYrwQyOtXW0x2BJOdaa2FZEBxAOCCsZQurW4/ykKFggnGRbCMVJbBdwOQ4Bqp0SNNlKwqVnVAJiGRk5imIW3lK2dTjpuTHCM0EoWfMYFmq98xKjnDCrBPGZtOOoS8+f6J8NX5hYKB3YGx4eGwcUotqlgiDbH0g147zzPuuNWSYVQVksrW9YyYCRfzJD7rkOOk0bQpZB+wsiVGGsrs6xgdHL4wNj1y9JK6EWBDm+VQVkElxGjJPkZh7V58lYclXroIzIjOfkVHYHJYIh9VfLw2WZ3pvo9FmU2jGIYulLTy0ugf7+9pOHGwp39r/1ZskkFD8VR/I9WMZoZpAftdwJqvzxNCoGOAY8n4uzocl3p+SgurGqwSkLvb2nBtq/mTvBvnQDVoJyQRhYMFKIL52BlqK/Vp7V9lG81hhPQYZJPqfqjIBwkTQT0j65mj5Ukjzoo4cloTcvYypmTk43t5SVnR1+uquTmAG668PpKabrtuqduP/Akhvs+/M8AwDpx9kD87yjr5m56kv2ssLNpv/XUAo9n/KZ8iYm2CgvZKc9TrSeFri5Xsv5hURTisrIcLJ0nzYL/DJW2U8TnfeSsr7WS4+qC7MWWJPlYL/p7pXS1wfyM2fDuTrhgNyqulsewdkAtvJ0ll9ORGIRfsrL/1vHSC+S4yIc/grTcsSPC3IWT5upOZwMRDJrzoyzfMSUu/qQlkV9tCoW/QqEz0ghKzuJLga7wX4+y8ApOGcem+r70TPxQSVf106LegvFcuNnau89F/1gAx6zdT4fAYFTDwS8lmelQsPXWjhcwAZJFMCZiqsH16FPzkCE4/iculbLCwFuPPVBV03PgTk1z/dh3z0XtyzlT7k8pnLAzYJ57BS6sN4McPZMxerFi7+Ws9kDTNRUnTJTQOJbDQhvN5d474FObhTYIFA81lBUPXbhy7oy0fENX2/ywfDgFqkZuyqjo8m34eA+I4VZdUOAT66MPysEshUW/v5KA4fhrSDs2+LSJWI37b9aCCt3TYHI/jaPYfFkA/x+kSNVRvn8neTcZn3hwkaA5k/H5ogl1AovR5615GFxQs7EA9cOnP8GfIz6JCPnjo53VFhsiaHRrqhHdkOlZS2s05GIkx3ZSuUr57JavJNdIkBRVzaQC5d0GiCDgraxiOGeYJ5gpAAKp0KrR/ie6KLoQLFEhBMfciQ5GD1Yvu1D82Qn0Gpf/x2qoGKXNZQZ7+ouMxmgTg4m9uJctOWW9XF9496QNAc6bWQFykaYV5yMMmRJN54FmF2DDWMxXlTA/G3Lw+tpZ8iSUu8a5SEpP7Mdb8brzKRn37QqX9zrED2ZkNme5v6yoA8/bK5tT+aoALLB203GKavzCgkjp/vK79w4j/1gfh8LSOQ3Mr5+SBBBFMEEArbpHs3mTbDGE046dDq4UaeFnwm9vi1c+BDhNCaIirdIxVl2L72Nx8CUjO5+IfjZHsbYA238xAQP/a3qc9a+m0FUkW91GSpb8bg9AxkLg60Tw4NTU6cOzdx5fJUz/hKjmB5jQU1gHj3r7PryQbvEAKQ/CmNDb3B5/xhGSB8wRSmb8daypaK4Xym9DX4wpbtKhbSoX3npq50Nu/XXTT3dCwmTUIm6GOm3+ttKvP5nYYszfI1lwH5S1vTmX7O4pTlXMlkqXc51wrAABcRE11deCDPxGBX13Ri/R4Q/GEzWBtIk29qZtFgWa8GnogH5Yy7E3J4Ii7RNCsLc9R7F+FrEV3r8Qv5fdvzfdeKiS4FSYYJdH9xqbd/ZHhgHFq7BtDo4BGpk9qRbJ0m9D8dA94veVQA+R911/baNpbG3bqp3dza6aRp03aSaZJpZ2i7mUmaMp12SfsfzHNhHpbdhZ1dltmHfdMNJGOOkISwkI+F/GBsZDBIsrESx6amNvjVBBJISEiDUyY0oYbQQktL2jTZo1wcp3WczD7seg74TUjW+c53+X2Xn046TvUhnK5X+RDMO20JiRgrij7786p4PGEZbFwYf6VxXhrA6AECcbT2vM7DHAwSElISgl6Z0Uw5itEmIac/4EwVTneKgkBt/Q2b+wcDofVSLMX6/Iae8OGMoPtTCTag4883TSBHtXoFqge/IXC61ZAV3I9N1sNjjqa+hOC3ltOVAlMGeXUhhqcoNsAwfpaiLBad3dnNiSCHvAMwDxKIo3NFwrQkMLcyIuknZT4ICDpJ8J70s8iZKlzopBhG/FD5G4AIPzdII5XQkV4ykbhoMYliovhG06ScKYWIel0nw0cHIgMN2ePgcJzeL5ATDne/L0JGXqqje8QAm4sBhrR8okhZghAoIo8yPxk2o54cBzDCc6BArhbXTa/J80iJ0FUKjPIgZwfBMFswqifSnDppRJbD/O40dW5jrOS3WFJkI4YgGCm/EdGn19II8Hs5mBmtJ5ChI9dwXTXarUcawGI1XawWCPewxdHeSUZYfDxcQeoIZ6/NGVbCivkF0bDIhPXrbFZFxggQhIx2+eNW0j3liy/no15C2hpZSHIy2lGZNkEwvyzg1YkYJxn3M7PqTv8cjBKh8GQ8EbcMg8EjesDH6qU3ZRQxh7zhZE4j6vT2uo7ej/igQRWkLbZULZA/dzS39OlCXC+sV5C6SZjqzArLBnDDIAO4MDc7sxHiTcAlTRilJflAgVwV3j4mMBqLykmaH+XkEMZhPPHIzI2LeHV/3EkqzjDTZbgd90IeYEFtdT6AMwzLMowhzr9YzwPO5JJcMKQlYd1m66Gj7nONCxuBw6y1t1glEMhNnz/d/RUeIy1hslLxo7EgkY5OvpsvilRp/tnTbDrN8aO5DKFxNlcM8XH3+541jBSyJgxiGSCbXoDJHg8BZZNQn1B4oFpDmikWeaWx9BaHEI+ZPIiGwlNPV+YMMV6afr6aVT1RKPFAQjfi4FaUFT5oPuTzGl5k+P6n19UaEGkE0pMOqvAK0jvWW8LKi/GuLipCFkVxBZgIz3lG5Shndw8qirK5NDO2PqWlTQ7LlG3HoJijIZtWjOZqT5hdS8VX83IlBcOhW0kclNTniYC/2oec8gdiCf1lnvN4FWBG7fiXppU0nFqaWcqWlbAGJYhEyUlQQ6gHA3bT44EjbbeOhi6GGrP3/WQcn8vuCgQdvKl5kdXjPl38lcIXwhyIeu0Wzm1bwkOopE0P4AnZ7myAj/JjWQ+PgDg6supfa8xgunoZ3zPFlPmdRQOFlwhaWS8wVKCaitF92WJEvbSuyUqUkLejO5qWYUjRNABkzJuDJub10OkPm1oyk0MHhM7/fOA7DR7BFrlq9JwON8LYZzdOzk/BHfdNQC5bwJlAokgFfJZvuiwRnFdLPt7qG8XQNhBeDAAMSraZCmbyC3PbMpMlOvz31hoC+ZKKzU3BSi8winq9WNSrvicpYT/h2AVGFK3EuzBvShl06+0cI2+3SCIwFNIIM5STTU59XVpHAQYgEJiZ+OVAe39j+PAqh/vTPNZIQ0zrxHFxsVIYCnKhVyV0eMmYz7JYXZwNZ7wcQXtl3t4gjgsCmqajCJmbCE4o5htRfKpoQd6DnEx4ocZ0s+sSK5BrGkfvLIyXaI72TM3F9FTssrs6W3AulaCKvqcbyVByu5/LJkDN0TzkoSwjtyObdH7qGcOuhTksCACNqf8+kFPbVUsih07hNoQ8HFdFRh+vpCxoDo4xKJBiKV8xJgTizHspPIqBDL/DEOfFaEkyUXQlcSA89lbQ9ZcT0YyWQ05GXajFkHHF0FMv0hXET2DBUFKaWKZEn45/t19TqRSJU8VV1ePhzK1WLiQRE+kHjxEcCuhGYWhtWtCtyY0knfEgzVF/qRMR1ZDIyIP6haw7DxqCVO5aQGfeVaIpDxF+giJbnDR0MYFUhCnOlvNcRtpuHUHLS5jQJtMl8snXBQTbxHeamQsBGdDh1VoCcd2kxEVO2vUhCILTkuKdtkRfz4X9r+/u6D3rSxnka3MDPILyNiWdzCPhQIgeMDqRfUkl/CnrRR4C2xtB9ec66blaOnJnz7HX4A0YaQxWuaYulsRfqHspi4lJPI7jRkJkRAQ6fKI+/URJa7JtbmAwaBLovMpAyUeXFxFESFHxaeWxB1l1LTTxz9ZaDzh2Ho/NhEM7C2omHZ5Y0PEvOz4tPrmPNTtbrnT/bWZDo6EdZtgMqJgs0xgX3hj5x3fXu7tIwfdcDQETQE3L/1T3zW7UyIvcvbV1CD7/4VNpDTYIjcMJMRaIP1V3UxZ0dOK1kCKNc51tzpNtF7rIGBMrvl0oq6qioEiLkICipSfKS28eXnU2Nzs/6/66MLaZ3VrDB+xP04We9zuX7K6Vrs/qfFLB1fyXNaCmFQ8yWjQNPWk17fnwU6ttT5paLsXGd+9y+379HLbrXg1HMnJ7YOD2nfq0G//X5aTiuv4hXMGFGfWZTsUvOrfNaXu3EWF9YnFudnkmO8WFQLA8tbTwfqV0pTIefbLj/I+Fwo//6jyYY+nY9b5r/Rc6Tt/8U2FrlfoOYwpofvhydSxb5qAWLGfHVmcf7pGIN18olbbuMtd26MvdH7rzuyNnOk5Z4txUJasLADFOxnsq5sR9msV1XSgGdPvLEStvx+3GZ0P8Zt9JbD11rL1uxsG1/XO1t5w+3/tVZ8uhvtPV2klZhcXxlZXxxQJF9VcbQ9eJzq6zZ8/0XjlCocf1h6HhQ6UxPNRI9GVtrEi9UyuVQaBlS2S8u8qu9+M6hYsx9mJvl8UkBEPHGabvv0z4uFwOd5P7aLFMS9/FM2fO9Jwzvv36+kePc7dd+qK/xXXER94bGKlHJjdwr7FIF79hEsyqWUkiYukFkRKqB/mbuiOkLn577Yrz+PXzKYZhdPyL9v9NvNF+Cnn5485PYwWXu/23HIn7t4YGa85VDf5wr5H4k7dWv5VCsLCiIfzELEn59yO8tr7LN7edsNuJTM7ljlbH73DdePDHoe8HBu/eHr59d3Dg+yFbFg5Hw1GStvb49QV1TyBaeZ4i/9PO3b2mDYVhAO+Hm3bDdQsMhMLoymDQ3Wx/32kSaCQknBxCxI+hFxJJQIgxGBuUQBV6K4IXSqWFCiusOJD2bjC6OXez3e3Ss7Ln9xeE5+Xk4T0XR/rbg2Kp5MbD9DC++13gzU9V+ntTL4+aq51tewM4VbqgjJeOb/wp9Rtd0VkayXCxmQlrZ9e2RvwWdXP5bk78sWDmEWMfkA2P+tgVpODqu+1Xcq6tauRjL3aW41JDltkrpLN+z95KYf1i0ulqFSKKWZ+4vla+K9VNVvPeIJ71y4RN5eZ+SEnsGu1uz9eoOlzIjZo1YMou4lm7Rwd17851xF6WqNVqTFuGZp9Ma6zkhd7zLeSz/kJ/P74stn3q5LWuWilSSvv3s4IVeDX5JTqdg8Ttl7J/bLi0G7eLxMjnOtcXzAt1xvZwPrgM5GvLMY4JqWir/shRUp5MCw3mCZlEEuFwGUgwr2pZ6reKMRFVpzM6C/SSjvbgJZmQo1v714s7qqhqw+U5ixSLeVjR+ZW6wNjnsmuIvtuxFzNzIEkDeQ+/K25S+6ESXfZd6pyezOuRHnqyWcKlIkeHQlSYTvrtyfmVaUqKJLFPuDHh2iKZA8Gajb4pR5FlMrkp7B+mkArXieykX79IP93aXnn8ZHMH4/hXBoMmBwAAAAAAAAAAAAAAAAAAAPiP/AQFc/BEN6DLzgAAAABJRU5ErkJggg==;" vertex="1" parent="1">
          <mxGeometry x="480" y="415" width="65.57" height="70" as="geometry" />
        </mxCell>
        <mxCell id="Ns-Jqw7Hq7Ku6WKl-Y8S-17" value="" style="shape=image;verticalLabelPosition=bottom;labelBackgroundColor=default;verticalAlign=top;aspect=fixed;imageAspect=0;image=data:image/png,iVBORw0KGgoAAAANSUhEUgAAASgAAACrCAMAAADiivHpAAAAwFBMVEX////u7u7t7e1tsz/39/f09PTx8fH6+vr5+flpsTj//v9rsjz///1ts0FstEBrsjtlsDL08fWbyYB6uVNiryxerSbK4LyhzYmax4OQw3Oy0KJkry/1+/K72azz7/Xt7+3t9ufe5tir0ZPJ3b7Q38br8OeJwGiCvVzQ5MP2+/Sayn11t0rZ69H79/ve7NaQxXKky46016LD3rPf7thXqheAvGKqzpinz5C62qbk6OLM58C81q3Y5NTI27+51auZwXhXyNviAAAYh0lEQVR4nO1dCV/quhJvWQrpmkgKYrEtyiaLigvqkXvv9/9WL1vbFAotm+g75nfefQZxMv13MplJZiaKwlpdpa3EO7US69R4j3cqvMO+plZ5R2MdjXeq/Fe8U0mRU9fJ1eVOFjlNJleVyZ2JVeUXqF+gfoH6KUBlPtnfAlSp2OjpJyvJo5fk0fPIZQGl0l5Jk2mrMu0IqIKsqjmslnZjVamzVqmylupUeK9gJ4vCKcntRrtyMKsZwJdk4EtZMlKXga9lyMjGl1rKeqm5MpI5UdfJ5bKaRS5itZRHu+hUzgFKlUdX89XELkClaZ+H1V+gfoH6BepMQJVYi1do2uIVmrZ4dNai0aWOoFCTOxWZXFUmF4++iVwtg1xd7mwml8VqLrkUq1lPnmJVqWu0qQJ4lXXqckfQ41+rSh0t4lXuVPj3BG11E21lnbZWzSW3kdUMcoVZreWxGgG1lxW3WfrVHHKZBifr5FvmR2J1V4NTjJ73ZL++3i9QpwPq2E5xRSaXov0Ngdpl4sejr3ua+znFJusg1mb0R1Mn5Erq4U7x8VhVaqxx3a/xDl9XtDrv8U5F7lR5p7re0QqSS9PW9Vo4fVpcjgeD9sXN9Z/nvj6rVhPaWeS+jFVBbosdtW6cqGnDJ7LicoyTPDvK7C2GwPMgBMABAEAIPWhdPPUTcl9mR6Vor9hRRafykc3dWDOMxgQXp7zSDABxYx4qfop2cBZWz+/CaKizcLBj2KswRWC5g1vkJ7RV9DcCVVJR99IFhmVb2ThR+Bw8+URaqaKzP0LzIPjrgAo09RGDbIhSYgUbPVTny6IKb9F3dIo3a8hcLzZfmaNbB+bDRIXK8NoB/6M5fkDq2ZS5WCTZ9nC0SPKOWCTFzvHGTjWjs5mc2IiuXrhk0hVCqmwDp0eshWofTvBdTLtejNXN3BVlNTIPUhIavQVJXPMs81Ku9K+T87t2MXGKpMp9RKo/cMKX5lFYlSl8Z6cY3UKnoDSxZtkGHARXL1NlMlDMH+TrHTi6f4V3gYk3MHRvFOXd7Zzb19tl9MOcYvQv3mQRbGveg2Iq4cufcwOVt2294+ibyJk19ImN3WGy4cA0iZHQaOcCdSxWt0lUvAcqdcSA+7wmdZ22rvd200+8WXBwp1Njau7dZbFaPxKrtc20D7ejdjpcULu7o0QavqBbL4RI+HI7MxNyX3m4sBPwB5q7xAF5BeWdoXLwtRI1+1GY6SdmdZ12UaCO4heghberHjcsrxFGMJlKy559Davn9fWWYNNWwQaUiF0A56ZiRkgpo5f7vwAo1C7gBieNWBEAj0NFbp2X6zMBlaPMVVlDqlnKvLhTTCzy3aYdxONnslIm8kREa/gQkSvE6gFO8cpmbOXrWv21gEDZ9J9F91ewdRNSaCScyM9v5eoXspw0JV9GVAl43okldLcVeuqWC9maDoDQnbzdywjFbeQu1UKsqilWs2RkC6sSuTP4euPNMDn0UMHzPIxdXB62b0ahQudcBlThS1M7PasSua8HqpM18ajC9lwwHL/Nn5qj6XPYyUJHbvAR/RSg9nOK9acMVW4bGFw0wxxsUu118J2B2suBWgFqnJYoh2hsgAcjDhJ1een/9Gx0pJWvNQlOzWpWFFsEVMEFP2VM7KYh71Zscqts48FzNi5rzVTCaEq+449Ts5plTOxvRyVW3EZeU8bJPV6ZdRCMhKubj5OpPEVAjV7C7EffbEepRe2olFO8Aus+ElqXJTQjzjxT+pvQSMmTN+goSkHlZCr3f6Lv3r9M6Y+nZPW8TvFC1uW25V1s0keZbRBD+vzSzAHqh/t6F0D2h+FYybMD5NZ8i38Mibf3/wsUUUUDORIDvBYHiSDacTtxr+OeB6h1Za4WVeaKGL2YMm+kgOrsMO9MpfGWaLPQZfsHWjFWd1Pmqc3YFWWekU9UNKepvlO+1CQGyijjp6JqnOF0Ae+SLpl6sxOzmkVbjF7Yjtrb0wwSibLsRmGUKE7XL3+k9TF8uULBYYEPOaxm21ECKFWa1yfwC0oqkqYeEagd2pM7kBfI+5dP7fu6MAePXtIGRoSULc+krY06NU8u7MgTdfpCg39+BFB7OcXoInb1wENRE4rgdI3dZkqhXbvL077TM2+zoMTghO/FVfkc43lqM1hp4Y9zAlVUme+tIVHTiwxOb1QUprsHzxuvfNaYnJrVbGUehWPLHUFPJCGxX8Xh2AxWuRNHjkudyjo5fRn7erjonsHzBNCYgzR27gPzpA9mVdnIaia5vbTOfsnXZac4UCwi4xo7YJg+XNCV5sv76VnNol10Kh/sF6D2DhJFRCYcYgsOVpSZqbTd55Ozel6nuPoZbUjhAjrqbk5mKm6b6YlnKiGe5MYe/HSgutHUg9fbVj0GzZMFHRvfrG9YLdzW6VktAFQp4xuFRt888WPafnSgDtqbYaLI6M0GdgwAMhzCO4yj2IM9WN1WICIXhryMpC1JSDX5jwokOPWiuQfvtkhU53riGWUHDkNl3S5t4de6zN2pWJU60aoXAf8VxskrYAcMtpfEOyWNWZV3ozEgk8428M06lqYyxXg6C85jRwmgVElcT2buTqNwYJDsw0mt0xwbnlM2LMcj4mSunzt0bDjcM7FxV1YTcmcJnxZaygZjYjQyJExxDtMZ3TSwB+hhn+GV/7A90VWZMhsOnp47KvhrRg89h5/ueS2FQcWWuLDZmmDIkvbsMsCTppLRdOVuCODFjwrI3zvOXFfmwuGz4YDNvnA6HwDPA4btMJQ8dzxVso8dwglwjDtT/95x5psrkuVXm0qRG7DJZ5cNgG/mA+iJ7E+b5jF67kMza6eKqflr1zDc6Q6sqjmsxso8h1wEVLRZLCchpTt1KSMpo1OXO7U8cn26fWcbHsYQACM+EgXQtW6mZvbJMflo1PBsCy5m67Tr21mtZ3QqxVhNk9srX2p/T7OEnolr4kyanXCBbcO2bCZcuP3EZqII1aBTz1R0XczBO2pZWTYY+ERkv47Vc2eAjrANQvrBtUfmmwHhZCGMbUk3xXJl3r+/umx6gob2lyVf/3HHbOU3iaFuDK+n4fOUtuf7+zAMO6KF4XT0dDOeYKbEbIqTGdCI/r8HKFN5opuWRGYIUNYQEnWFsYfZ/2HXJf9c+l/sEUUfhaVbZboxVSp9U4na2yneDhTxRDp0IfsD2GFokeZ4D+QvSl/NalGgUq9J7qQTnHZ9TcQiN8OamRWpuKEZHjtg+HpW12h/kVOcUOi3XshCVkyabGj3UELuq1k9b/2oijKdwGLTzsIXgSZPpi9m9eyFtsw5hCxHYTNEVJ684f2K1vnrgFI6N8Q634KUbQHcGK2S+0FAHakiGVHPH4sJcYg3KSfgtalzp//EimQ5TvHOFcmQentpEbfPsDhcts3razgQeq/zLqJfMo9VpvuwAhFnSVWS2qxWmS4GdD8qrrRFrPFGq9mfzc7Nm9zyvMETl+mmm3dKHaHgo/f5/tYat1utx39vlx+I7m8SgyuD9m7ivNMpzI8o060h3tERorkuWVkWWyzzk7P6fYDalt3yC9QvUP+HQKVcoiOX6S7obu1Vprtg0Y+jl+lW5Zeqyi9VLQh86qVuJLelmIom067KtLdY5pzCSVhVUqxmAnVkyzxvhc4ip8nkTlqmuyCr+wB1PL9gL6DOw+ovUCcE6vfuqn08zfxt66I6SpXJnf7uql0rkvFwq4p0UBplF6U6LN6qLle6jJOQatIhbHUnclmdLeSORXsPcrVa7hH9QU5xaSvtAjKC6NlwYvgcyOo2p3iddkqcv7NlfteC+KGLgm9imX9boMwJLNsO6KJfoLYDdY3LtlEG//nBL1BbgeJpa0ZjRan8XzrFB91d1WJAOUPtm9y5sDk2+8hXY9RkCvm00a1LD6zwu370yPG9LhxRUhIavQVJXAvHW22U/sIGp0xOU/2WB4D7YCqrlvmRWN31FEaMru4w+hf5eqj3+DhiIWXfyYX5hkCpGkIy7Z8H1K9TfNDo5HsBXSmoUkkmvq6bCTnTZJ3SaiyXyY73kkgzXU+ckoRckGKVx/JvYtVMWDX1tUoueznF/AvRUsI6kbqXOwyompx6W8vMwyW4SEuJUjOTZUrRaa+K0CptshiZekyOQGvWGLmALkZERzFySBz8xeRooHUGqwjVddLMOFnaVAQ5TaRI1VKdmNWtMCj77dhvOg3ohOGy+4H82IorBZra7UZ1tVWEusvR6Dk00+QqftDtItHRu8uuivhL7YcBrS5CX+pdaCaGT6cfdj58WgZ0nVUz7DWbt8vAF9z5QW9ZUgvaUdsOF/aZyuvmbqDp07cGoHH25cblZ59OOUUJVG3ZwNho0sBNDS0fJ4DW2oSTVg9ptGo3Jze7MjAcdun0u7tuAIwnS0QE4Zn86eQfRCZ0/a5N/uqdniAjdDueQOxip/G4RKpmplmdti16XZjnWRf3LAhy9ul4uPwPr5xwUGhiUaC2+gWB3xtiEb9j2IYHWbyOgoI+cOwyTc0wleDCi6I2DeA1er4gZypNt2wZwCLYPDnsngHgfZhKh8ZNA9yjAz1Ay7HwAqn+bRQnZBgAt7tIBgqNGm4URER++0BT2aauQRjAYfJOz+nrBX4Lg+Q+HFpcGw8JVKq/gPRTMFCUZwvY0Vdsu+zgsYoCDtTQsAzLhk1ljB0a/mNb8F9dmVNYLdD2A+3etcqWY2ANPWIjutmCljqFPUaAsYr6/2EnripvWw6ghSgeWB00ePMNgNJLAWp562FgeKQEUUEWoNzj1avhQKPvs5XL5HlEcP6Go/A7uJgJX486xUgEEHv9R7wSoIef2epHWNU+GmClVrpNWOA1hpzx4UAdrMz1kv8ZZXYaTgKHM1BUxIuUOlborV1xYoNGoCRAlY2hEwsl/NRjoAIVNTlQgOCUpmKXbVZAgl6EOVkL3bNsNxyyD4GoW3KIU7y5cFfBKl7V+h2ZFuzJcWMwhC7k1yo4k2pdFxJlNYyybdhE2RNNG08eOGDDaiBCmeFEfu14lersUgBVq9cEUDawymSWAgDo5OV/AxYzRBiq1AZCnmzDgDQTAlJlWZ40OFDtmfRIuSXLsp5cyZCRGq87FptdEvCZZbpHPPvcW3xQn6N/PXQp0/A/pChRLSSqeQBsje6fb68aWKSBWvgK0QJ0qdK4BE23EZI1MgKKDNSMZrZjOa7TvmxbyUSGpYDKyHU0KR3v9ek5fJ7elGEifqCN1qZK7BRnmzrxwx7R1+NowLkfqNyUDscY4slHyVSSolFl94YmLdI4sX+s6FOPVTiSgXLcwW1IaSdAmQlQFh48z4hNWV2+Riuod4sIq3dRpQAw6YnbK4Kr5KYeAtRG5Zt6cnX9yY8IFBdv3E9Gn3U//6FuRgyUbXlTnkxNyKHgFfAAc1ZyWwLKgq9dQTsDKJtYCIJVv9oSSIFLApQeFacCgwBFrPpLYInsiDMBterFTtaAqrDwQlmi8FKUcWfkUEMkf0JZoggQjyiinTX1aHJ7lHytD/nsc4ZEA8zEauIMiX0asRr4XSyys74OqK2rKAcKPPoBsbXZOiZGT4CCVyi1bd0XUwU2kQSURwQsch0zgDIwtQUiVqMizQ6xz0c8XcSCXemdloJ4OS4MVMaTF69IlnuRAb9zwoAXga9xp15oyASoSZAmp98IA4ugGwNlvKLE3coAClxIrJomfz9l7Jf8RzrzDAu8EdglVlWfa4WjKPPNdlTRwwW0EJnnwHt7Vn0krZE+B8qiBUrTpwFdISST2I4iejmUeY3sKFr1DQrx86W3JGri2C7psGlIZm5IBVpmNYK4LT/sFzrF8lSuoSUvZmAR6xpPHnsaCiriGtjIMqe+Vpo2Eu8amjFQ3CoUc7MmW+YCKLzUJFa1R/53FCgGh+U0+O6VxKrpSqTP7hSjVpJRRvxd+7EbRR4KoBxrjbYvHpNIkQDKxtPkYUqZQNFT45hVdAUjoDquNDXTrDaMg4E6lq9nEqU5iLM5bWIzA3cwTQFlDNdoa/wxbZwABZh+2wqUzKqWABW6/B3N11nlPtS3AIqNfokdu5xcCOe44zuykkdAsVe9MvX+FUA9R0AR3zBXorYCZcHrVVZNQeUYQG1W5sXLdKvI771ikKrDbYWJRAF631S69nU0cXA3AkpMnDVlngJKYlUGilsK8H2d1QsZqIPKdB8p+WhWu780MIgdXoJUn3zK+bQb+ur369yWtmG3XhFAtVLZVLMIKPJjDJT0+2o9Aqpe73t86r3NKvUVtrhZCtprDOzaFElGdr67KiV/xDPpPTYwrScmJESL7CgDrtZer0SlpOBHZHASX0ReoTPsKDeUWDWVawGU6gdcooyhL8sIYVX1I/PAX50qZ0y+JsKKtHBOK9RxAfiIdw/gLVrxCyIN7vgSUBK5LF9PAKUK7mKgVCRsT/CxymovAupbOMVi9ECMPpo4bALCzxgop70CVG3KhcB5QMcASlx8AT9RKcVqVKjxmzjFK6PrHbb/asFFsh8Fl6kMvNJsKOzNq3ygVqdeBlBir9iYpFgtaUtsfDFQOySY0Frt/EjhMQHKaQSiZl2JeM4qEg9J9LO2AtS6U5wnUeTP7lzxPohXLb3TYBIVHzweUHkqbXO+FArbjcF9SkPyVUqWqDIYxOTU5I5L6gbHQLV2UuYRULZLlHZ8gRi8RoJVYsShQTz6EZR5noykEpyyCp50DOAY+KLPiz7R9yieEd9qcVl8Wq6nSw89NZ2VlRYf4qkeO8WgJb1UydfTcg1OXakuuUhZhndjzhjbqhIOk5r8bZn2bqldKV/vkDLdZJ5ZtNhhi595agj9ywUAhxFQNFnfBvCyRyxTpdMcCnmy4IClWAug3sRLFbQTg1OTgSplWOZkosb3GMHJv0vNJ6bKBeZlGBlt2TIvUAJ3I1D7uzC68i4KIQI8aV2Pbm+vhhwn5zXZPTC4fQytxnAC4q1sw6P12vKBynVhlGoQGNENyAaE1oSMwocUEnUh0T6Pr2fSo83oAARAWr5AXCqPR8nuwWTM9YntANuIT+/wLdXvxwEK9ZJb6WjdPC5KoD3hYibTPpdTrCxcZ/06awuOpf0oQxnSMznp1+Sf+8kLZdSErdVaBcraCpTwFi2XPwy6xStcWDZoiOVQuMuHA7VjElL6SB11h3jtHlT8QKRFTY7UzUH6OWyAb0Wkj9jThfNVoOjHzhAFBAMuOx8Sq4EfudWCVW1ZTpfusokKnHI1EF2HsUVHlWSgsmBIpRDJSUjpDj9QjaOMkyQkmgg16726kOgIi80qIvkQL2a1ulmdxUDVdCF4fDfGcQf9GQ9aruuX0CDS5t6naOtNdqSJFxVU7VOvyHYaM01mla50BvV3BasouKAvTBwYl4G70PVWtMO6zndN2+XJBYSHlvkylfDGwqy6Cq2tAh8/ED3AjQ8XADGR9P7Yxbz8CnQf7hNyxC6E0HDnvnw/NDEK2i4A3pBqsdm/LgQQsh1xidU5/RTQvRemLU3TX16yQqgAep772PXRh/CWrYy7p8/hFNM1fuZ/3F49Xr693Tw9E3Ls5lcJKEKOfGs0v2g//Le4Lc0UU6Jtvrfepkpf1gwaNUsvL3mR/Krfe7xc9HnZ15hVso68tRaBimJWA2Kc9K4eW29v71PTJ1gPeHkqejqzUfmmnlxdf/KjOsUmq/EUx1maFeYgrwDFsSE2DtKCurlOezUqOKDh0zojR6xsRDSamWaV/g4JVkeTl+HI13yi+sUONWGnLZSW9/zN48xXgFofvZRaSVaASsjlh0/fvxhlBzc++8T6F6z6y0YUBDNQUPD/ClSKXC5Q+gNTRQ7Eg8U/97Qw7PR96Mb30ITHjDM/SJkr2WFnKWWeGZgrb5gWrPqRxaoeXRBSdqBHa8MSnS528O0yft+W2rXj3VXRIrkxI2lzEtK2XCzJPNhC7vDUrsrVym3RiTFVxpez7Hyp3Z58r3ypwsnXxOBk5rWhZM6sovlSGydqzCq64EHJqehEus9q0FjiUgFWNyuBo57rbfALxKV6GQegGeQ2AlUgVTbwl2PqZVpGCifbHfZQMVY30/4KoNQuOxh1R6cGqhSofv9zADAxaKMwdNJ5mOqo9COA8m8nRK++r9/AfGygqIWLlM50Ph5OysSbmjTa81GH0g5OD1Qxp3h77WtUWvbumKWY4Wnuo6MKsPpBmooyWM0ilwlUllMslhLxDblTVZMkJGJu0J/jrWDWEUDxTrS/ypeSNLka3f+Vc5oyaafIyZ2InJrLas00a2aFpmIRCmzUDFa1baxychtZPVft6xS5A+yoL2A1AkrNkf7f+lG/QP0CdXagfpOv80dPPxmz5XKNiZ0qkiXKnHaOW5HssDLdm5OnNichVfIyrvYid0rah5P7wjLda7SP6BTvbRv/vDLdh7kwJ2f1F6hfoH6B+gXqWwP1P/7wj7ZfyHVFAAAAAElFTkSuQmCC;" vertex="1" parent="1">
          <mxGeometry x="370" y="420" width="103.86" height="60" as="geometry" />
        </mxCell>
      </root>
    </mxGraphModel>
  </diagram>
</mxfile>
